<mxfile host="app.diagrams.net" modified="2023-10-19T14:46:38.718Z" agent="Mozilla/5.0 (Windows NT 10.0; Win64; x64) AppleWebKit/537.36 (KHTML, like Gecko) Chrome/118.0.0.0 Safari/537.36" etag="BqTuubgpm4aGFMLzPWPD" version="22.0.5" type="github">
  <diagram name="PÃ gina-1" id="jwsh2uQWg2K7kbO6ysq4">
    <mxGraphModel dx="661" dy="750" grid="0" gridSize="10" guides="1" tooltips="1" connect="1" arrows="1" fold="1" page="1" pageScale="1" pageWidth="827" pageHeight="1169" math="0" shadow="0">
      <root>
        <mxCell id="0" />
        <mxCell id="1" parent="0" />
        <mxCell id="w5u-BCPX9tSiq1V_wm3K-1" value="Pieza" style="swimlane;fontStyle=0;childLayout=stackLayout;horizontal=1;startSize=26;horizontalStack=0;resizeParent=1;resizeParentMax=0;resizeLast=0;collapsible=1;marginBottom=0;align=center;fontSize=14;" parent="1" vertex="1">
          <mxGeometry x="106" y="218" width="160" height="116" as="geometry" />
        </mxCell>
        <mxCell id="w5u-BCPX9tSiq1V_wm3K-5" value="" style="shape=table;startSize=0;container=1;collapsible=1;childLayout=tableLayout;fixedRows=1;rowLines=0;fontStyle=0;align=center;resizeLast=1;strokeColor=none;fillColor=none;collapsible=0;" parent="w5u-BCPX9tSiq1V_wm3K-1" vertex="1">
          <mxGeometry y="26" width="160" height="30" as="geometry" />
        </mxCell>
        <mxCell id="w5u-BCPX9tSiq1V_wm3K-6" value="" style="shape=tableRow;horizontal=0;startSize=0;swimlaneHead=0;swimlaneBody=0;fillColor=none;collapsible=0;dropTarget=0;points=[[0,0.5],[1,0.5]];portConstraint=eastwest;top=0;left=0;right=0;bottom=1;" parent="w5u-BCPX9tSiq1V_wm3K-5" vertex="1">
          <mxGeometry width="160" height="30" as="geometry" />
        </mxCell>
        <mxCell id="w5u-BCPX9tSiq1V_wm3K-7" value="PK" style="shape=partialRectangle;connectable=0;fillColor=none;top=0;left=0;bottom=0;right=0;fontStyle=1;overflow=hidden;whiteSpace=wrap;html=1;" parent="w5u-BCPX9tSiq1V_wm3K-6" vertex="1">
          <mxGeometry width="30" height="30" as="geometry">
            <mxRectangle width="30" height="30" as="alternateBounds" />
          </mxGeometry>
        </mxCell>
        <mxCell id="w5u-BCPX9tSiq1V_wm3K-8" value="id_pieza" style="shape=partialRectangle;connectable=0;fillColor=none;top=0;left=0;bottom=0;right=0;align=left;spacingLeft=6;fontStyle=5;overflow=hidden;whiteSpace=wrap;html=1;" parent="w5u-BCPX9tSiq1V_wm3K-6" vertex="1">
          <mxGeometry x="30" width="130" height="30" as="geometry">
            <mxRectangle width="130" height="30" as="alternateBounds" />
          </mxGeometry>
        </mxCell>
        <mxCell id="w5u-BCPX9tSiq1V_wm3K-3" value="descripcion" style="text;strokeColor=none;fillColor=none;spacingLeft=4;spacingRight=4;overflow=hidden;rotatable=0;points=[[0,0.5],[1,0.5]];portConstraint=eastwest;fontSize=12;whiteSpace=wrap;html=1;" parent="w5u-BCPX9tSiq1V_wm3K-1" vertex="1">
          <mxGeometry y="56" width="160" height="30" as="geometry" />
        </mxCell>
        <mxCell id="w5u-BCPX9tSiq1V_wm3K-4" value="precio" style="text;strokeColor=none;fillColor=none;spacingLeft=4;spacingRight=4;overflow=hidden;rotatable=0;points=[[0,0.5],[1,0.5]];portConstraint=eastwest;fontSize=12;whiteSpace=wrap;html=1;" parent="w5u-BCPX9tSiq1V_wm3K-1" vertex="1">
          <mxGeometry y="86" width="160" height="30" as="geometry" />
        </mxCell>
        <mxCell id="w5u-BCPX9tSiq1V_wm3K-10" value="compuesto" style="shape=rhombus;perimeter=rhombusPerimeter;whiteSpace=wrap;html=1;align=center;" parent="1" vertex="1">
          <mxGeometry x="126" y="418" width="120" height="60" as="geometry" />
        </mxCell>
        <mxCell id="w5u-BCPX9tSiq1V_wm3K-11" value="" style="endArrow=none;html=1;rounded=0;entryX=1;entryY=0.5;entryDx=0;entryDy=0;" parent="1" target="w5u-BCPX9tSiq1V_wm3K-10" edge="1">
          <mxGeometry relative="1" as="geometry">
            <mxPoint x="246" y="334" as="sourcePoint" />
            <mxPoint x="246" y="444" as="targetPoint" />
          </mxGeometry>
        </mxCell>
        <mxCell id="w5u-BCPX9tSiq1V_wm3K-12" value="" style="endArrow=none;html=1;rounded=0;entryX=1;entryY=0.5;entryDx=0;entryDy=0;exitX=0.123;exitY=1;exitDx=0;exitDy=0;exitPerimeter=0;" parent="1" edge="1">
          <mxGeometry relative="1" as="geometry">
            <mxPoint x="125.68000000000006" y="334" as="sourcePoint" />
            <mxPoint x="125" y="448" as="targetPoint" />
          </mxGeometry>
        </mxCell>
        <mxCell id="w5u-BCPX9tSiq1V_wm3K-29" value="Guarda" style="shape=rhombus;perimeter=rhombusPerimeter;whiteSpace=wrap;html=1;align=center;" parent="1" vertex="1">
          <mxGeometry x="336" y="231" width="120" height="60" as="geometry" />
        </mxCell>
        <mxCell id="w5u-BCPX9tSiq1V_wm3K-30" value="Contiene" style="shape=rhombus;perimeter=rhombusPerimeter;whiteSpace=wrap;html=1;align=center;" parent="1" vertex="1">
          <mxGeometry x="536" y="378" width="120" height="60" as="geometry" />
        </mxCell>
        <mxCell id="w5u-BCPX9tSiq1V_wm3K-31" value="" style="endArrow=none;html=1;rounded=0;entryX=0;entryY=0.5;entryDx=0;entryDy=0;exitX=0.998;exitY=0.559;exitDx=0;exitDy=0;exitPerimeter=0;" parent="1" source="w5u-BCPX9tSiq1V_wm3K-3" target="w5u-BCPX9tSiq1V_wm3K-29" edge="1">
          <mxGeometry relative="1" as="geometry">
            <mxPoint x="266" y="288" as="sourcePoint" />
            <mxPoint x="356" y="288" as="targetPoint" />
          </mxGeometry>
        </mxCell>
        <mxCell id="w5u-BCPX9tSiq1V_wm3K-32" value="" style="endArrow=none;html=1;rounded=0;exitX=0.5;exitY=0;exitDx=0;exitDy=0;entryX=0.517;entryY=0.989;entryDx=0;entryDy=0;entryPerimeter=0;" parent="1" source="w5u-BCPX9tSiq1V_wm3K-30" target="_BHCApm0lJc91tvse7UV-23" edge="1">
          <mxGeometry relative="1" as="geometry">
            <mxPoint x="366" y="458" as="sourcePoint" />
            <mxPoint x="594" y="331" as="targetPoint" />
          </mxGeometry>
        </mxCell>
        <mxCell id="w5u-BCPX9tSiq1V_wm3K-33" value="" style="endArrow=none;html=1;rounded=0;entryX=-0.001;entryY=0.553;entryDx=0;entryDy=0;exitX=1;exitY=0.5;exitDx=0;exitDy=0;entryPerimeter=0;" parent="1" source="w5u-BCPX9tSiq1V_wm3K-29" edge="1">
          <mxGeometry relative="1" as="geometry">
            <mxPoint x="426" y="291" as="sourcePoint" />
            <mxPoint x="513.8399999999999" y="257.5899999999999" as="targetPoint" />
          </mxGeometry>
        </mxCell>
        <mxCell id="w5u-BCPX9tSiq1V_wm3K-34" value="" style="endArrow=none;html=1;rounded=0;exitX=0.5;exitY=0;exitDx=0;exitDy=0;entryX=0.5;entryY=1;entryDx=0;entryDy=0;" parent="1" target="w5u-BCPX9tSiq1V_wm3K-30" edge="1">
          <mxGeometry relative="1" as="geometry">
            <mxPoint x="596" y="508" as="sourcePoint" />
            <mxPoint x="576" y="438" as="targetPoint" />
          </mxGeometry>
        </mxCell>
        <mxCell id="w5u-BCPX9tSiq1V_wm3K-39" value="1,n" style="text;html=1;strokeColor=none;fillColor=none;align=center;verticalAlign=middle;whiteSpace=wrap;rounded=0;" parent="1" vertex="1">
          <mxGeometry x="106" y="338" width="60" height="30" as="geometry" />
        </mxCell>
        <mxCell id="w5u-BCPX9tSiq1V_wm3K-40" value="1,n" style="text;html=1;strokeColor=none;fillColor=none;align=center;verticalAlign=middle;whiteSpace=wrap;rounded=0;" parent="1" vertex="1">
          <mxGeometry x="206" y="338" width="60" height="30" as="geometry" />
        </mxCell>
        <mxCell id="w5u-BCPX9tSiq1V_wm3K-41" value="N:M" style="text;html=1;strokeColor=none;fillColor=none;align=center;verticalAlign=middle;whiteSpace=wrap;rounded=0;" parent="1" vertex="1">
          <mxGeometry x="156" y="393" width="60" height="30" as="geometry" />
        </mxCell>
        <mxCell id="w5u-BCPX9tSiq1V_wm3K-42" value="0,n" style="text;html=1;strokeColor=none;fillColor=none;align=center;verticalAlign=middle;whiteSpace=wrap;rounded=0;" parent="1" vertex="1">
          <mxGeometry x="257" y="254" width="60" height="30" as="geometry" />
        </mxCell>
        <mxCell id="w5u-BCPX9tSiq1V_wm3K-43" value="1,n" style="text;html=1;strokeColor=none;fillColor=none;align=center;verticalAlign=middle;whiteSpace=wrap;rounded=0;" parent="1" vertex="1">
          <mxGeometry x="466" y="238" width="60" height="30" as="geometry" />
        </mxCell>
        <mxCell id="w5u-BCPX9tSiq1V_wm3K-44" value="1,n" style="text;html=1;strokeColor=none;fillColor=none;align=center;verticalAlign=middle;whiteSpace=wrap;rounded=0;" parent="1" vertex="1">
          <mxGeometry x="556" y="334" width="60" height="30" as="geometry" />
        </mxCell>
        <mxCell id="w5u-BCPX9tSiq1V_wm3K-45" value="1,n" style="text;html=1;strokeColor=none;fillColor=none;align=center;verticalAlign=middle;whiteSpace=wrap;rounded=0;" parent="1" vertex="1">
          <mxGeometry x="556" y="467" width="60" height="30" as="geometry" />
        </mxCell>
        <mxCell id="w5u-BCPX9tSiq1V_wm3K-46" value="N:M" style="text;html=1;strokeColor=none;fillColor=none;align=center;verticalAlign=middle;whiteSpace=wrap;rounded=0;" parent="1" vertex="1">
          <mxGeometry x="491" y="393" width="60" height="30" as="geometry" />
        </mxCell>
        <mxCell id="w5u-BCPX9tSiq1V_wm3K-47" value="N:M" style="text;html=1;strokeColor=none;fillColor=none;align=center;verticalAlign=middle;whiteSpace=wrap;rounded=0;" parent="1" vertex="1">
          <mxGeometry x="366" y="288" width="60" height="30" as="geometry" />
        </mxCell>
        <mxCell id="_BHCApm0lJc91tvse7UV-10" value="Almacen" style="swimlane;fontStyle=0;childLayout=stackLayout;horizontal=1;startSize=26;horizontalStack=0;resizeParent=1;resizeParentMax=0;resizeLast=0;collapsible=1;marginBottom=0;align=center;fontSize=14;" parent="1" vertex="1">
          <mxGeometry x="516" y="510" width="160" height="116" as="geometry" />
        </mxCell>
        <mxCell id="_BHCApm0lJc91tvse7UV-11" value="" style="shape=table;startSize=0;container=1;collapsible=1;childLayout=tableLayout;fixedRows=1;rowLines=0;fontStyle=0;align=center;resizeLast=1;strokeColor=none;fillColor=none;collapsible=0;" parent="_BHCApm0lJc91tvse7UV-10" vertex="1">
          <mxGeometry y="26" width="160" height="30" as="geometry" />
        </mxCell>
        <mxCell id="_BHCApm0lJc91tvse7UV-12" value="" style="shape=tableRow;horizontal=0;startSize=0;swimlaneHead=0;swimlaneBody=0;fillColor=none;collapsible=0;dropTarget=0;points=[[0,0.5],[1,0.5]];portConstraint=eastwest;top=0;left=0;right=0;bottom=1;" parent="_BHCApm0lJc91tvse7UV-11" vertex="1">
          <mxGeometry width="160" height="30" as="geometry" />
        </mxCell>
        <mxCell id="_BHCApm0lJc91tvse7UV-13" value="PK" style="shape=partialRectangle;connectable=0;fillColor=none;top=0;left=0;bottom=0;right=0;fontStyle=1;overflow=hidden;whiteSpace=wrap;html=1;" parent="_BHCApm0lJc91tvse7UV-12" vertex="1">
          <mxGeometry width="30" height="30" as="geometry">
            <mxRectangle width="30" height="30" as="alternateBounds" />
          </mxGeometry>
        </mxCell>
        <mxCell id="_BHCApm0lJc91tvse7UV-14" value="num_almacen" style="shape=partialRectangle;connectable=0;fillColor=none;top=0;left=0;bottom=0;right=0;align=left;spacingLeft=6;fontStyle=5;overflow=hidden;whiteSpace=wrap;html=1;" parent="_BHCApm0lJc91tvse7UV-12" vertex="1">
          <mxGeometry x="30" width="130" height="30" as="geometry">
            <mxRectangle width="130" height="30" as="alternateBounds" />
          </mxGeometry>
        </mxCell>
        <mxCell id="_BHCApm0lJc91tvse7UV-15" value="descripcion" style="text;strokeColor=none;fillColor=none;spacingLeft=4;spacingRight=4;overflow=hidden;rotatable=0;points=[[0,0.5],[1,0.5]];portConstraint=eastwest;fontSize=12;whiteSpace=wrap;html=1;" parent="_BHCApm0lJc91tvse7UV-10" vertex="1">
          <mxGeometry y="56" width="160" height="30" as="geometry" />
        </mxCell>
        <mxCell id="_BHCApm0lJc91tvse7UV-16" value="direccion" style="text;strokeColor=none;fillColor=none;spacingLeft=4;spacingRight=4;overflow=hidden;rotatable=0;points=[[0,0.5],[1,0.5]];portConstraint=eastwest;fontSize=12;whiteSpace=wrap;html=1;" parent="_BHCApm0lJc91tvse7UV-10" vertex="1">
          <mxGeometry y="86" width="160" height="30" as="geometry" />
        </mxCell>
        <mxCell id="_BHCApm0lJc91tvse7UV-18" value="Estanteria" style="swimlane;fontStyle=0;childLayout=stackLayout;horizontal=1;startSize=26;horizontalStack=0;resizeParent=1;resizeParentMax=0;resizeLast=0;collapsible=1;marginBottom=0;align=center;fontSize=14;" parent="1" vertex="1">
          <mxGeometry x="514" y="218" width="160" height="86" as="geometry" />
        </mxCell>
        <mxCell id="_BHCApm0lJc91tvse7UV-19" value="" style="shape=table;startSize=0;container=1;collapsible=1;childLayout=tableLayout;fixedRows=1;rowLines=0;fontStyle=0;align=center;resizeLast=1;strokeColor=none;fillColor=none;collapsible=0;" parent="_BHCApm0lJc91tvse7UV-18" vertex="1">
          <mxGeometry y="26" width="160" height="30" as="geometry" />
        </mxCell>
        <mxCell id="_BHCApm0lJc91tvse7UV-20" value="" style="shape=tableRow;horizontal=0;startSize=0;swimlaneHead=0;swimlaneBody=0;fillColor=none;collapsible=0;dropTarget=0;points=[[0,0.5],[1,0.5]];portConstraint=eastwest;top=0;left=0;right=0;bottom=1;" parent="_BHCApm0lJc91tvse7UV-19" vertex="1">
          <mxGeometry width="160" height="30" as="geometry" />
        </mxCell>
        <mxCell id="_BHCApm0lJc91tvse7UV-21" value="PK" style="shape=partialRectangle;connectable=0;fillColor=none;top=0;left=0;bottom=0;right=0;fontStyle=1;overflow=hidden;whiteSpace=wrap;html=1;" parent="_BHCApm0lJc91tvse7UV-20" vertex="1">
          <mxGeometry width="30" height="30" as="geometry">
            <mxRectangle width="30" height="30" as="alternateBounds" />
          </mxGeometry>
        </mxCell>
        <mxCell id="_BHCApm0lJc91tvse7UV-22" value="id_estanteria" style="shape=partialRectangle;connectable=0;fillColor=none;top=0;left=0;bottom=0;right=0;align=left;spacingLeft=6;fontStyle=5;overflow=hidden;whiteSpace=wrap;html=1;" parent="_BHCApm0lJc91tvse7UV-20" vertex="1">
          <mxGeometry x="30" width="130" height="30" as="geometry">
            <mxRectangle width="130" height="30" as="alternateBounds" />
          </mxGeometry>
        </mxCell>
        <mxCell id="_BHCApm0lJc91tvse7UV-23" value="cantidad_piezas" style="text;strokeColor=none;fillColor=none;spacingLeft=4;spacingRight=4;overflow=hidden;rotatable=0;points=[[0,0.5],[1,0.5]];portConstraint=eastwest;fontSize=12;whiteSpace=wrap;html=1;" parent="_BHCApm0lJc91tvse7UV-18" vertex="1">
          <mxGeometry y="56" width="160" height="30" as="geometry" />
        </mxCell>
        <mxCell id="kQ6kPTFAnf9aw-hfmE83-2" value="&lt;p style=&quot;line-height: 180%; font-size: 15px;&quot;&gt;Pieza (&lt;b&gt;id_pieza&lt;/b&gt;, descripcion, precio)&lt;br&gt;Compuesto (&lt;u&gt;&lt;b&gt;fk_id_pieza_1&lt;/b&gt;,&lt;/u&gt; &lt;u&gt;&lt;b&gt;fk_id_pieza_2&lt;/b&gt;&lt;/u&gt;)&lt;br&gt;Estanteria (&lt;b&gt;id_estanteria&lt;/b&gt;, cantidad_piezas)&lt;br&gt;Guarda (&lt;u&gt;&lt;b&gt;fk_id_pieza&lt;/b&gt;&lt;/u&gt;, &lt;u&gt;&lt;b&gt;fk_id_estanteria&lt;/b&gt;&lt;/u&gt;)&lt;br&gt;Almacen (&lt;b&gt;num_almacen&lt;/b&gt;,&lt;u&gt;&amp;nbsp;&lt;/u&gt;descripcion, direccion)&lt;br&gt;Contiene (&lt;u&gt;&lt;b&gt;fk_id_estanteria&lt;/b&gt;&lt;/u&gt;, &lt;u&gt;&lt;b&gt;fk_num_almacen&lt;/b&gt;&lt;/u&gt;)&lt;/p&gt;" style="text;html=1;strokeColor=none;fillColor=none;align=left;verticalAlign=middle;whiteSpace=wrap;rounded=0;" parent="1" vertex="1">
          <mxGeometry x="106" y="590" width="381" height="90" as="geometry" />
        </mxCell>
      </root>
    </mxGraphModel>
  </diagram>
</mxfile>
